<svg width="30" height="30" viewBox="0 0 30 30" fill="none" xmlns="http://www.w3.org/2000/svg">
<path d="M11.9781 10.7595L13.2905 6.16874C13.7823 4.45035 16.2177 4.45035 16.7095 6.16874L18.0204 10.7595C18.1034 11.0499 18.2591 11.3144 18.4726 11.528C18.6862 11.7415 18.9507 11.8972 19.2411 11.9802L23.8317 13.2912C25.5501 13.783 25.5501 16.2184 23.8317 16.7102L19.2411 18.0212C18.9507 18.1042 18.6862 18.2599 18.4726 18.4734C18.2591 18.687 18.1034 18.9515 18.0204 19.2419L16.7095 23.8327C16.2177 25.5511 13.7823 25.5511 13.2905 23.8327L11.9796 19.2419C11.8966 18.9515 11.7409 18.687 11.5274 18.4734C11.3138 18.2599 11.0493 18.1042 10.7589 18.0212L6.16828 16.7102C4.44993 16.2184 4.44993 13.783 6.16828 13.2912L10.7589 11.9802C11.0493 11.8972 11.3138 11.7415 11.5274 11.528C11.7409 11.3144 11.8966 11.0499 11.9796 10.7595M24.0421 21.6773C24.4702 20.4285 26.27 20.427 26.6966 21.6773L26.7351 21.8061C27.005 22.8892 27.8506 23.7353 28.9334 24.006C30.3555 24.3615 30.3555 26.3791 28.9334 26.7347C27.8506 27.0054 27.005 27.8514 26.7351 28.9345C26.3796 30.3552 24.3606 30.3552 24.005 28.9345C23.7342 27.8513 22.8885 27.0055 21.8053 26.7347C20.3832 26.3791 20.3832 24.36 21.8053 24.006C22.8885 23.7352 23.7342 22.8894 24.005 21.8061L24.0421 21.6773ZM25.3693 25.0696C25.3267 25.1267 25.2801 25.1806 25.2298 25.2308C25.1545 25.3061 25.1545 25.4345 25.2298 25.5098C25.3051 25.5851 25.4336 25.5851 25.5089 25.5098C25.5842 25.4345 25.5845 25.3061 25.5093 25.2307C25.4589 25.18 25.4121 25.1257 25.3693 25.0681M3.30338 0.936527C3.74482 -0.353751 5.65129 -0.310791 5.99644 1.06541C6.2663 2.1485 7.11187 2.99452 8.19475 3.26525C9.61683 3.62078 9.61683 5.63841 8.19475 5.99394C7.11187 6.26467 6.2663 7.11069 5.99644 8.19378C5.64092 9.61442 3.62186 9.61442 3.26634 8.19378C2.99555 7.11057 2.14977 6.26475 1.06656 5.99394C-0.35552 5.63841 -0.35552 3.6193 1.06656 3.26525C2.14977 2.99444 2.99555 2.14862 3.26634 1.06541L3.30338 0.936527ZM4.77002 4.49069C4.69466 4.41586 4.56655 4.41565 4.49128 4.49058C4.41589 4.56564 4.41566 4.69395 4.49074 4.76933C4.56612 4.84502 4.69526 4.84493 4.77065 4.76925C4.84572 4.69389 4.8455 4.56563 4.77002 4.49069Z" fill="url(#paint0_linear_721_102)"/>
<defs>
<linearGradient id="paint0_linear_721_102" x1="0" y1="15" x2="30" y2="15" gradientUnits="userSpaceOnUse">
<stop stop-color="#F472B6"/>
<stop offset="1" stop-color="#A855F7"/>
</linearGradient>
</defs>
</svg>
