<svg width="10" height="9" viewBox="0 0 10 9" fill="none" xmlns="http://www.w3.org/2000/svg">
<g clip-path="url(#clip0_46_465)">
<path d="M3.76663 8.15991C3.46242 8.15991 3.17429 8.0439 2.98966 7.84388L0.4909 5.14592C0.413645 5.0626 0.357245 4.96765 0.324922 4.86651C0.2926 4.76536 0.284989 4.66 0.302525 4.55646C0.320062 4.45291 0.362401 4.3532 0.427123 4.26303C0.491845 4.17286 0.577681 4.094 0.679723 4.03096C0.781728 3.96765 0.898019 3.92141 1.02193 3.8949C1.14584 3.86839 1.27494 3.86212 1.40182 3.87646C1.52871 3.89079 1.65088 3.92545 1.76134 3.97844C1.8718 4.03142 1.96838 4.10171 2.04554 4.18526L3.6897 5.95914L7.82353 0.534629C7.96063 0.355527 8.17905 0.22817 8.43091 0.180496C8.68276 0.132821 8.94747 0.16872 9.16697 0.28032C9.62364 0.512342 9.76421 1.00382 9.47888 1.37757L4.59465 7.78388C4.51128 7.89373 4.39635 7.98529 4.25986 8.05062C4.12336 8.11595 3.96942 8.15307 3.81139 8.15877C3.796 8.15991 3.78202 8.15991 3.76663 8.15991Z" fill="white"/>
</g>
<defs>
<clipPath id="clip0_46_465">
<rect width="9.92" height="8.32" fill="white"/>
</clipPath>
</defs>
</svg>
