<svg width="16" height="16" viewBox="0 0 16 16" fill="none" xmlns="http://www.w3.org/2000/svg">
<g clip-path="url(#clip0_61_36)">
<path fill-rule="evenodd" clip-rule="evenodd" d="M0 4.44444C0 3.2657 0.468253 2.13524 1.30175 1.30175C2.13524 0.468253 3.2657 0 4.44444 0H11.5556C12.7343 0 13.8648 0.468253 14.6983 1.30175C15.5317 2.13524 16 3.2657 16 4.44444V11.5556C16 12.7343 15.5317 13.8648 14.6983 14.6983C13.8648 15.5317 12.7343 16 11.5556 16H4.44444C3.2657 16 2.13524 15.5317 1.30175 14.6983C0.468253 13.8648 0 12.7343 0 11.5556V4.44444ZM4.44444 1.77778C3.7372 1.77778 3.05892 2.05873 2.55883 2.55883C2.05873 3.05892 1.77778 3.7372 1.77778 4.44444V11.5556C1.77778 12.2628 2.05873 12.9411 2.55883 13.4412C3.05892 13.9413 3.7372 14.2222 4.44444 14.2222H11.5556C12.2628 14.2222 12.9411 13.9413 13.4412 13.4412C13.9413 12.9411 14.2222 12.2628 14.2222 11.5556V4.44444C14.2222 3.7372 13.9413 3.05892 13.4412 2.55883C12.9411 2.05873 12.2628 1.77778 11.5556 1.77778H4.44444ZM11.1973 3.74578C11.1973 3.51003 11.291 3.28394 11.4577 3.11724C11.6244 2.95054 11.8505 2.85689 12.0862 2.85689H12.0951C12.3309 2.85689 12.557 2.95054 12.7236 3.11724C12.8903 3.28394 12.984 3.51003 12.984 3.74578C12.984 3.98153 12.8903 4.20762 12.7236 4.37432C12.557 4.54102 12.3309 4.63467 12.0951 4.63467H12.0862C11.8505 4.63467 11.6244 4.54102 11.4577 4.37432C11.291 4.20762 11.1973 3.98153 11.1973 3.74578ZM8 5.33333C7.29276 5.33333 6.61448 5.61428 6.11438 6.11438C5.61428 6.61448 5.33333 7.29276 5.33333 8C5.33333 8.70724 5.61428 9.38552 6.11438 9.88562C6.61448 10.3857 7.29276 10.6667 8 10.6667C8.70724 10.6667 9.38552 10.3857 9.88562 9.88562C10.3857 9.38552 10.6667 8.70724 10.6667 8C10.6667 7.29276 10.3857 6.61448 9.88562 6.11438C9.38552 5.61428 8.70724 5.33333 8 5.33333ZM3.55556 8C3.55556 6.82126 4.02381 5.6908 4.8573 4.8573C5.6908 4.02381 6.82126 3.55556 8 3.55556C9.17874 3.55556 10.3092 4.02381 11.1427 4.8573C11.9762 5.6908 12.4444 6.82126 12.4444 8C12.4444 9.17874 11.9762 10.3092 11.1427 11.1427C10.3092 11.9762 9.17874 12.4444 8 12.4444C6.82126 12.4444 5.6908 11.9762 4.8573 11.1427C4.02381 10.3092 3.55556 9.17874 3.55556 8Z" fill="black"/>
</g>
<defs>
<clipPath id="clip0_61_36">
<rect width="16" height="16" fill="white"/>
</clipPath>
</defs>
</svg>
