<svg width="16" height="16" viewBox="0 0 16 16" fill="none" xmlns="http://www.w3.org/2000/svg">
<g clip-path="url(#clip0_46_384)">
<path d="M6.80664 12C6.50242 12 6.21429 11.884 6.02967 11.684L3.53091 8.986C3.45365 8.90268 3.39725 8.80774 3.36493 8.70659C3.33261 8.60545 3.325 8.50009 3.34253 8.39654C3.36007 8.29299 3.40241 8.19329 3.46713 8.10312C3.53185 8.01295 3.61769 7.93409 3.71973 7.87104C3.82174 7.80774 3.93803 7.7615 4.06194 7.73499C4.18585 7.70848 4.31495 7.70221 4.44183 7.71654C4.56871 7.73088 4.69089 7.76553 4.80135 7.81852C4.91181 7.87151 5.00839 7.9418 5.08555 8.02534L6.72971 9.79922L10.8635 4.37472C11.0006 4.19561 11.2191 4.06826 11.4709 4.02058C11.7228 3.97291 11.9875 4.00881 12.207 4.12041C12.6637 4.35243 12.8042 4.8439 12.5189 5.21765L7.63466 11.624C7.55129 11.7338 7.43636 11.8254 7.29987 11.8907C7.16337 11.956 7.00943 11.9932 6.8514 11.9989C6.83601 12 6.82202 12 6.80664 12Z" fill="black"/>
</g>
<defs>
<clipPath id="clip0_46_384">
<rect width="9.92" height="8.32" fill="white" transform="translate(3.04001 3.84009)"/>
</clipPath>
</defs>
</svg>
