<svg width="900" height="350" viewBox="0 0 900 350" fill="none" xmlns="http://www.w3.org/2000/svg">
<rect width="900" height="350" rx="10" fill="#828282"/>
<path fill-rule="evenodd" clip-rule="evenodd" d="M437.833 146.667C437.214 146.202 436.478 145.92 435.708 145.85C434.937 145.781 434.162 145.927 433.47 146.273C432.778 146.619 432.196 147.151 431.789 147.809C431.382 148.468 431.167 149.226 431.167 150V200C431.167 200.774 431.382 201.532 431.789 202.19C432.196 202.849 432.778 203.381 433.47 203.727C434.162 204.073 434.937 204.219 435.708 204.15C436.478 204.08 437.214 203.798 437.833 203.333L471.167 178.333C471.684 177.945 472.104 177.442 472.394 176.863C472.683 176.285 472.833 175.647 472.833 175C472.833 174.353 472.683 173.715 472.394 173.137C472.104 172.558 471.684 172.055 471.167 171.667L437.833 146.667Z" fill="black"/>
</svg>
