<svg width="40" height="40" viewBox="0 0 40 40" fill="none" xmlns="http://www.w3.org/2000/svg">
<g clip-path="url(#clip0_44_226)">
<path d="M30 13.75C30 13.9219 29.8594 14.0625 29.6875 14.0625H27.5C27.3281 14.0625 27.1875 13.9219 27.1875 13.75V11.5625H21.4062V13.75C21.4062 13.9219 21.2656 14.0625 21.0938 14.0625H18.9062C18.7344 14.0625 18.5938 13.9219 18.5938 13.75V11.5625H12.8125V13.75C12.8125 13.9219 12.6719 14.0625 12.5 14.0625H10.3125C10.1406 14.0625 10 13.9219 10 13.75V11.5625H5.3125V30.9375H34.6875V11.5625H30V13.75ZM16.5625 26.875C16.5625 27.0469 16.4219 27.1875 16.25 27.1875H9.0625C8.89062 27.1875 8.75 27.0469 8.75 26.875V25C8.75 24.8281 8.89062 24.6875 9.0625 24.6875H16.25C16.4219 24.6875 16.5625 24.8281 16.5625 25V26.875ZM16.5625 21.5625C16.5625 21.7344 16.4219 21.875 16.25 21.875H9.0625C8.89062 21.875 8.75 21.7344 8.75 21.5625V19.6875C8.75 19.5156 8.89062 19.375 9.0625 19.375H16.25C16.4219 19.375 16.5625 19.5156 16.5625 19.6875V21.5625ZM31.1875 18L24.7422 26.9336C24.6846 27.0134 24.6089 27.0785 24.5213 27.1233C24.4337 27.1682 24.3367 27.1916 24.2383 27.1916C24.1399 27.1916 24.0428 27.1682 23.9552 27.1233C23.8676 27.0785 23.7919 27.0134 23.7344 26.9336L19.2773 20.7539C19.1289 20.5469 19.2773 20.2578 19.5312 20.2578H21.6758C21.875 20.2578 22.0625 20.3516 22.1797 20.5156L24.2422 23.3711L28.2891 17.7578C28.4062 17.5977 28.5938 17.5 28.7891 17.5039H30.9336C31.1875 17.5039 31.3359 17.793 31.1875 18Z" fill="white" fill-opacity="0.15"/>
<path d="M28.2891 17.7578L24.2422 23.3711L22.1797 20.5156C22.0625 20.3516 21.875 20.2578 21.6758 20.2578H19.5312C19.2773 20.2578 19.1289 20.5469 19.2773 20.7539L23.7344 26.9336C23.7919 27.0134 23.8676 27.0785 23.9552 27.1233C24.0428 27.1682 24.1399 27.1916 24.2383 27.1916C24.3367 27.1916 24.4337 27.1682 24.5213 27.1233C24.609 27.0785 24.6846 27.0134 24.7422 26.9336L31.1875 18C31.3359 17.793 31.1875 17.5039 30.9336 17.5039H28.7891C28.5938 17.5 28.4062 17.5976 28.2891 17.7578ZM16.25 19.375H9.0625C8.89062 19.375 8.75 19.5156 8.75 19.6875V21.5625C8.75 21.7344 8.89062 21.875 9.0625 21.875H16.25C16.4219 21.875 16.5625 21.7344 16.5625 21.5625V19.6875C16.5625 19.5156 16.4219 19.375 16.25 19.375Z" fill="#73AE08"/>
<path d="M36.25 8.75H30V6.5625C30 6.39062 29.8594 6.25 29.6875 6.25H27.5C27.3281 6.25 27.1875 6.39062 27.1875 6.5625V8.75H21.4062V6.5625C21.4062 6.39062 21.2656 6.25 21.0938 6.25H18.9062C18.7344 6.25 18.5938 6.39062 18.5938 6.5625V8.75H12.8125V6.5625C12.8125 6.39062 12.6719 6.25 12.5 6.25H10.3125C10.1406 6.25 10 6.39062 10 6.5625V8.75H3.75C3.05859 8.75 2.5 9.30859 2.5 10V32.5C2.5 33.1914 3.05859 33.75 3.75 33.75H36.25C36.9414 33.75 37.5 33.1914 37.5 32.5V10C37.5 9.30859 36.9414 8.75 36.25 8.75ZM34.6875 30.9375H5.3125V11.5625H10V13.75C10 13.9219 10.1406 14.0625 10.3125 14.0625H12.5C12.6719 14.0625 12.8125 13.9219 12.8125 13.75V11.5625H18.5938V13.75C18.5938 13.9219 18.7344 14.0625 18.9062 14.0625H21.0938C21.2656 14.0625 21.4062 13.9219 21.4062 13.75V11.5625H27.1875V13.75C27.1875 13.9219 27.3281 14.0625 27.5 14.0625H29.6875C29.8594 14.0625 30 13.9219 30 13.75V11.5625H34.6875V30.9375Z" fill="#73AE08"/>
<path d="M16.25 24.6875H9.0625C8.89062 24.6875 8.75 24.8281 8.75 25V26.875C8.75 27.0469 8.89062 27.1875 9.0625 27.1875H16.25C16.4219 27.1875 16.5625 27.0469 16.5625 26.875V25C16.5625 24.8281 16.4219 24.6875 16.25 24.6875Z" fill="#73AE08"/>
</g>
<defs>
<clipPath id="clip0_44_226">
<rect width="40" height="40" fill="white"/>
</clipPath>
</defs>
</svg>
