<svg width="12" height="6" viewBox="0 0 12 6" fill="none" xmlns="http://www.w3.org/2000/svg">
<path d="M8.56002 6.77109e-05C9.45602 6.77109e-05 10.1654 0.245401 10.688 0.736068C11.2107 1.21607 11.472 1.88807 11.472 2.75207C11.472 3.3174 11.344 3.80807 11.088 4.22407C10.832 4.64007 10.4854 4.96007 10.048 5.18407C9.62135 5.40807 9.14669 5.52007 8.62402 5.52007C7.99469 5.52007 7.44002 5.3974 6.96002 5.15207C6.49069 4.90673 6.04269 4.57073 5.61602 4.14407C5.30669 4.56007 4.91735 4.89607 4.44802 5.15207C3.97869 5.3974 3.46669 5.52007 2.91202 5.52007C2.01602 5.52007 1.30669 5.28007 0.78402 4.80007C0.261353 4.3094 1.95503e-05 3.63207 1.95503e-05 2.76807C1.95503e-05 2.20273 0.12802 1.71207 0.38402 1.29607C0.64002 0.880068 0.981353 0.560068 1.40802 0.336068C1.84535 0.112068 2.32535 6.77109e-05 2.84802 6.77109e-05C3.49869 6.77109e-05 4.05335 0.133401 4.51202 0.400068C4.97069 0.656068 5.39735 1.0134 5.79202 1.47207C6.11202 1.02407 6.50669 0.666735 6.97602 0.400068C7.45602 0.133401 7.98402 6.77109e-05 8.56002 6.77109e-05ZM3.07202 3.69607C3.33869 3.69607 3.60002 3.62673 3.85602 3.48807C4.12269 3.3494 4.35735 3.15207 4.56002 2.89607C4.27202 2.54407 4.01069 2.2774 3.77602 2.09607C3.55202 1.91473 3.31735 1.82407 3.07202 1.82407C2.80535 1.82407 2.58669 1.9094 2.41602 2.08007C2.24535 2.24007 2.16002 2.4694 2.16002 2.76807C2.16002 3.06673 2.24002 3.29607 2.40002 3.45607C2.57069 3.61607 2.79469 3.69607 3.07202 3.69607ZM8.40002 3.69607C8.66669 3.69607 8.88535 3.61607 9.05602 3.45607C9.22669 3.2854 9.31202 3.05073 9.31202 2.75207C9.31202 2.4534 9.22669 2.22407 9.05602 2.06407C8.89602 1.90407 8.67735 1.82407 8.40002 1.82407C8.10135 1.82407 7.80802 1.9094 7.52002 2.08007C7.24269 2.24007 7.00802 2.4694 6.81602 2.76807C7.07202 3.06673 7.32269 3.29607 7.56802 3.45607C7.81335 3.61607 8.09069 3.69607 8.40002 3.69607Z" fill="black"/>
</svg>
