<svg width="41" height="41" viewBox="0 0 41 41" fill="none" xmlns="http://www.w3.org/2000/svg">
<path d="M30.8 11.9C32.1255 11.9 33.2 10.8255 33.2 9.49997C33.2 8.17449 32.1255 7.09998 30.8 7.09998C29.4745 7.09998 28.4 8.17449 28.4 9.49997C28.4 10.8255 29.4745 11.9 30.8 11.9Z" fill="url(#paint0_linear_726_2240)"/>
<path d="M20.3 10.2C14.8 10.2 10.4 14.7 10.4 20.1C10.4 25.6 14.9 30 20.3 30C25.8 30 30.2 25.5 30.2 20.1C30.2 14.7 25.8 10.2 20.3 10.2ZM20.3 26.5C16.8 26.5 13.9 23.6 13.9 20.1C13.9 16.6 16.8 13.7 20.3 13.7C23.8 13.7 26.7 16.6 26.7 20.1C26.7 23.6 23.8 26.5 20.3 26.5Z" fill="url(#paint1_linear_726_2240)"/>
<path d="M28.2 40.3H12.1C5.39999 40.3 0 34.9 0 28.2V12.1C0 5.40004 5.39999 0 12.1 0H28.2C34.9 0 40.3 5.40004 40.3 12.1V28.2C40.3 34.9 34.9 40.3 28.2 40.3ZM12.1 3.80002C7.49999 3.80002 3.79999 7.50004 3.79999 12.1V28.2C3.79999 32.8 7.49999 36.5 12.1 36.5H28.2C32.8 36.5 36.5 32.8 36.5 28.2V12.1C36.5 7.50004 32.8 3.80002 28.2 3.80002H12.1Z" fill="url(#paint2_linear_726_2240)"/>
<defs>
<linearGradient id="paint0_linear_726_2240" x1="10.9087" y1="-10.3778" x2="48.8334" y2="27.5467" gradientUnits="userSpaceOnUse">
<stop offset="0.0011048" stop-color="#FFE185"/>
<stop offset="0.2094" stop-color="#FFBB36"/>
<stop offset="0.3765" stop-color="#FF5176"/>
<stop offset="0.5238" stop-color="#F63395"/>
<stop offset="0.7394" stop-color="#A436D2"/>
<stop offset="1" stop-color="#5F4EED"/>
</linearGradient>
<linearGradient id="paint1_linear_726_2240" x1="0.351922" y1="0.178818" x2="38.2769" y2="38.1038" gradientUnits="userSpaceOnUse">
<stop offset="0.0011048" stop-color="#FFE185"/>
<stop offset="0.2094" stop-color="#FFBB36"/>
<stop offset="0.3765" stop-color="#FF5176"/>
<stop offset="0.5238" stop-color="#F63395"/>
<stop offset="0.7394" stop-color="#A436D2"/>
<stop offset="1" stop-color="#5F4EED"/>
</linearGradient>
<linearGradient id="paint2_linear_726_2240" x1="0.269" y1="0.261599" x2="38.1942" y2="38.1868" gradientUnits="userSpaceOnUse">
<stop offset="0.0011048" stop-color="#FFE185"/>
<stop offset="0.2094" stop-color="#FFBB36"/>
<stop offset="0.3765" stop-color="#FF5176"/>
<stop offset="0.5238" stop-color="#F63395"/>
<stop offset="0.7394" stop-color="#A436D2"/>
<stop offset="1" stop-color="#5F4EED"/>
</linearGradient>
</defs>
</svg>
