<svg width="34" height="34" viewBox="0 0 34 34" fill="none" xmlns="http://www.w3.org/2000/svg">
<path fill-rule="evenodd" clip-rule="evenodd" d="M0 17.0147V33.3104H7.78947V15.688V11.1035H0V17.0147Z" fill="#2096CF"/>
<path fill-rule="evenodd" clip-rule="evenodd" d="M3.86722 0C1.7682 0 0 1.76763 0 3.86665C0 6.02072 1.7682 7.78834 3.86722 7.78834C6.02128 7.78834 7.78947 6.02129 7.78947 3.86665C7.78947 1.76763 6.02128 0 3.86722 0Z" fill="#2096CF"/>
<path fill-rule="evenodd" clip-rule="evenodd" d="M33.1451 17.8977C32.593 13.7541 30.6597 11.1035 25.0242 11.1035C21.6558 11.1035 19.4462 12.3741 18.5059 14.0866H18.3958V11.1035H12.2088V15.3572V33.3109H18.6721V22.3182C18.6721 19.3901 19.226 16.5727 22.8151 16.5727C26.3515 16.5727 26.6273 19.8872 26.6273 22.4839V33.3109H33.3108V21.1021C33.3102 19.9416 33.2575 18.8924 33.1451 17.8977Z" fill="#2096CF"/>
</svg>
