<svg width="16" height="18" viewBox="0 0 16 18" fill="none" xmlns="http://www.w3.org/2000/svg">
<g clip-path="url(#clip0_15_95)">
<path d="M11.8575 6.4813C13.0249 7.30961 14.455 7.79698 15.9996 7.79698V4.84684C15.7072 4.84696 15.4157 4.81667 15.1297 4.75647V7.07866C13.5852 7.07866 12.1553 6.59135 10.9877 5.7631V11.7835C10.9877 14.7953 8.52794 17.2366 5.49394 17.2366C4.36187 17.2366 3.30962 16.8969 2.43556 16.3143C3.43319 17.3268 4.82444 17.9549 6.36356 17.9549C9.39781 17.9549 11.8576 15.5136 11.8576 12.5017V6.4813H11.8575ZM12.9306 3.50497C12.334 2.85803 11.9423 2.02196 11.8575 1.09763V0.718201H11.0332C11.2407 1.89298 11.9485 2.89664 12.9306 3.50497ZM4.35456 14.0032C4.02121 13.5694 3.84103 13.0387 3.84187 12.4931C3.84187 11.1156 4.96694 9.99875 6.355 9.99875C6.61364 9.99861 6.87076 10.038 7.11731 10.1156V7.09951C6.82919 7.06035 6.53844 7.04365 6.24781 7.04979V9.39737C6.00113 9.31975 5.74389 9.28035 5.48512 9.28055C4.09712 9.28055 2.97212 10.3973 2.97212 11.7749C2.97212 12.749 3.53444 13.5924 4.35456 14.0032Z" fill="#FF004F"/>
<path d="M10.9877 5.76304C12.1554 6.59129 13.5852 7.07859 15.1297 7.07859V4.75641C14.2676 4.57411 13.5044 4.12697 12.9306 3.50497C11.9484 2.89657 11.2407 1.89292 11.0332 0.718201H8.868V12.5016C8.86306 13.8753 7.73994 14.9875 6.35487 14.9875C5.53875 14.9875 4.81362 14.6014 4.35444 14.0031C3.53444 13.5924 2.97206 12.749 2.97206 11.775C2.97206 10.3975 4.09706 9.28061 5.48506 9.28061C5.751 9.28061 6.00731 9.3217 6.24775 9.39743V7.04986C3.267 7.11099 0.869812 9.52846 0.869812 12.5016C0.869812 13.9858 1.46675 15.3313 2.43562 16.3144C3.30969 16.8969 4.36187 17.2367 5.494 17.2367C8.52806 17.2367 10.9877 14.7953 10.9877 11.7835L10.9877 5.76304Z" fill="black"/>
<path d="M15.1297 4.75634V4.12858C14.3523 4.1297 13.5902 3.9136 12.9306 3.50497C13.5144 4.13945 14.2833 4.57698 15.1297 4.75647M11.0331 0.718138C11.0134 0.605891 10.9982 0.492895 10.9876 0.379428V0H7.998V11.7835C7.99325 13.1571 6.87013 14.2693 5.485 14.2693C5.09233 14.2699 4.70502 14.1788 4.35437 14.0033C4.81356 14.6014 5.53869 14.9875 6.35481 14.9875C7.73981 14.9875 8.86306 13.8753 8.86794 12.5016V0.7182L11.0331 0.718138ZM6.24788 7.04979V6.38137C5.99805 6.3475 5.7462 6.33054 5.49406 6.3306C2.45969 6.3306 0 8.77202 0 11.7835C0 13.6716 0.966688 15.3355 2.43569 16.3143C1.46681 15.3312 0.869875 13.9857 0.869875 12.5016C0.869875 9.52846 3.267 7.11093 6.24788 7.04979Z" fill="#00F2EA"/>
</g>
<defs>
<clipPath id="clip0_15_95">
<rect width="16" height="18" fill="white"/>
</clipPath>
</defs>
</svg>
