<svg width="16" height="11" viewBox="0 0 16 11" fill="none" xmlns="http://www.w3.org/2000/svg">
<g clip-path="url(#clip0_15_100)">
<path d="M15.6466 1.71569C15.5549 1.38408 15.3758 1.08175 15.1274 0.838828C14.879 0.595902 14.5698 0.420849 14.2306 0.3311C12.989 0 7.99189 0 7.99189 0C7.99189 0 2.99451 0.0100222 1.75289 0.341122C1.41373 0.430876 1.10454 0.605938 0.856102 0.848876C0.607665 1.09181 0.428651 1.39415 0.336887 1.72578C-0.0386755 3.88288 -0.184363 7.1698 0.347199 9.24061C0.438973 9.57223 0.617991 9.87455 0.866427 10.1175C1.11486 10.3604 1.42405 10.5355 1.7632 10.6252C3.00482 10.9563 8.00208 10.9563 8.00208 10.9563C8.00208 10.9563 12.9993 10.9563 14.2408 10.6252C14.58 10.5355 14.8892 10.3604 15.1376 10.1175C15.3861 9.87456 15.5651 9.57224 15.6569 9.24061C16.053 7.08046 16.1751 3.79555 15.6466 1.71569Z" fill="#FF0000"/>
<path d="M6.40131 7.8259L10.5468 5.47814L6.40131 3.13037V7.8259Z" fill="white"/>
</g>
<defs>
<clipPath id="clip0_15_100">
<rect width="16" height="11" fill="white"/>
</clipPath>
</defs>
</svg>
