<svg width="40" height="40" viewBox="0 0 40 40" fill="none" xmlns="http://www.w3.org/2000/svg">
<path d="M3.33334 36.6666V31.6666C3.33334 30.7499 3.66001 29.9655 4.31334 29.3132C4.96668 28.661 5.75112 28.3344 6.66668 28.3333H33.3333C34.25 28.3333 35.035 28.6599 35.6883 29.3132C36.3417 29.9666 36.6678 30.751 36.6667 31.6666V36.6666H3.33334ZM6.66668 33.3333H33.3333V31.6666H6.66668V33.3333ZM8.33334 25.8333V6.66659C8.33334 5.74992 8.66001 4.96547 9.31334 4.31325C9.96668 3.66103 10.7511 3.33436 11.6667 3.33325H28.3333C29.25 3.33325 30.035 3.65992 30.6883 4.31325C31.3417 4.96659 31.6678 5.75103 31.6667 6.66659V25.8333H28.3333V6.66659H11.6667V25.8333H8.33334ZM13.3333 23.3333H14.2917C15.5139 23.3333 16.4933 22.7221 17.23 21.4999C17.9667 20.2777 18.3345 18.6666 18.3333 16.6666C18.3322 14.6666 17.9639 13.0555 17.2283 11.8333C16.4928 10.611 15.5145 9.99992 14.2933 9.99992H13.3333V23.3333ZM23.3333 19.9999C24.25 19.9999 25.035 19.6738 25.6883 19.0216C26.3417 18.3694 26.6678 17.5844 26.6667 16.6666C26.6656 15.7488 26.3395 14.9644 25.6883 14.3133C25.0372 13.6621 24.2522 13.3355 23.3333 13.3333C22.4145 13.331 21.63 13.6577 20.98 14.3133C20.33 14.9688 20.0033 15.7533 20 16.6666C19.9967 17.5799 20.3233 18.3649 20.98 19.0216C21.6367 19.6783 22.4211 20.0044 23.3333 19.9999Z" fill="#658C77"/>
</svg>
