<svg width="37" height="37" viewBox="0 0 37 37" fill="none" xmlns="http://www.w3.org/2000/svg">
<path d="M18.7868 37H18.776C13.2553 36.963 9.01112 35.1423 6.15903 31.5903C3.62299 28.4283 2.31258 24.0284 2.26941 18.5154V18.4892C2.31566 12.9716 3.62453 8.57629 6.16212 5.41279C9.01112 1.85771 13.2584 0.037 18.7776 0H18.7992C23.0326 0.0308333 26.5738 1.11771 29.3226 3.23442C31.9079 5.22317 33.7287 8.05983 34.7323 11.6627L31.5873 12.5399C29.8853 6.43492 25.5779 3.31458 18.7853 3.26679C14.299 3.30071 10.9074 4.70979 8.70278 7.4555C6.64003 10.027 5.57474 13.7424 5.53312 18.5C5.57474 23.2576 6.64003 26.973 8.70432 29.5445C10.9089 32.2933 14.3021 33.7039 18.7868 33.7332C22.8306 33.7024 25.5054 32.7604 27.7285 30.5805C30.2676 28.0938 30.2229 25.0413 29.4089 23.1836C28.931 22.089 28.063 21.1794 26.8898 20.4857C26.5938 22.57 25.9309 24.2566 24.9103 25.53C23.5444 27.2289 21.6112 28.157 19.1599 28.2896C17.3068 28.3898 15.52 27.9535 14.1356 27.0547C12.4968 25.9925 11.5379 24.3722 11.4346 22.4852C11.3344 20.6506 12.0636 18.9625 13.485 17.7338C14.8417 16.5621 16.7518 15.873 19.0088 15.7435C20.5641 15.6482 22.1252 15.7216 23.6647 15.9624C23.4704 14.8185 23.0865 13.9089 22.5084 13.2537C21.7175 12.3503 20.4919 11.8924 18.8716 11.8816H18.8269C17.5257 11.8816 15.7559 12.2393 14.632 13.9166L11.9233 12.0975C13.4342 9.85588 15.8823 8.61946 18.8269 8.61946H18.8947C23.8188 8.65029 26.7526 11.6642 27.0455 16.926C27.2131 16.9979 27.378 17.0709 27.5404 17.1449C29.8375 18.224 31.5179 19.8597 32.4028 21.8778C33.6315 24.6836 33.7456 29.2624 30.0163 32.913C27.1642 35.7035 23.7047 36.9645 18.7976 36.9985L18.7868 37ZM20.3331 18.9779C19.9611 18.9779 19.5813 18.9887 19.1938 19.0103C16.3633 19.1691 14.5997 20.4687 14.6983 22.3141C14.8016 24.2504 16.9368 25.1492 18.9903 25.0382C20.8773 24.938 23.3347 24.2011 23.7479 19.3186C22.6249 19.0844 21.4802 18.9702 20.3331 18.9779Z" fill="black"/>
</svg>
