<svg width="39" height="44" viewBox="0 0 39 44" fill="none" xmlns="http://www.w3.org/2000/svg">
<path opacity="0.8" fill-rule="evenodd" clip-rule="evenodd" d="M28.5 15.7C31.3 17.7 34.8 18.9 38.5 18.9V11.7C37.8 11.7 37.1 11.6 36.4 11.5V17.1C32.7 17.1 29.2 15.9 26.4 13.9V28.5C26.4 35.8 20.5 41.7 13.2 41.7C10.5 41.7 7.89999 40.9 5.79999 39.5C8.19999 42 11.6 43.5 15.3 43.5C22.6 43.5 28.5 37.6 28.5 30.3V15.7ZM31.1 8.5C29.7 6.9 28.7 4.89998 28.5 2.69998V1.79999H26.5C27 4.49999 28.8 7 31.1 8.5ZM10.4 33.9C9.59999 32.8 9.20001 31.6 9.20001 30.2C9.20001 26.9 11.9 24.1 15.3 24.1C15.9 24.1 16.5 24.2 17.1 24.4V17.1C16.4 17 15.7 17 15 17V22.7C14.4 22.5 13.8 22.4 13.2 22.4C9.90001 22.4 7.10001 25.1 7.10001 28.5C7.10001 30.9 8.49999 32.9 10.4 33.9Z" fill="#FF1753"/>
<path fill-rule="evenodd" clip-rule="evenodd" d="M26.4 13.8999C29.2 15.8999 32.7 17.0999 36.4 17.0999V11.5C34.3 11.1 32.5 9.99997 31.1 8.49997C28.7 6.99997 27 4.59995 26.5 1.69995H21.3V30.3C21.3 33.6 18.6 36.3 15.2 36.3C13.2 36.3 11.5 35.3999 10.4 33.8999C8.39999 32.8999 7.10001 30.9 7.10001 28.5C7.10001 25.2 9.80001 22.3999 13.2 22.3999C13.8 22.3999 14.5 22.5 15 22.7V17C7.8 17.1 2 23 2 30.2C2 33.8 3.39999 37.1 5.79999 39.5C7.89999 40.9 10.4 41.7 13.2 41.7C20.5 41.7 26.4 35.8 26.4 28.5V13.8999Z" fill="url(#paint0_linear_726_2267)"/>
<path fill-rule="evenodd" clip-rule="evenodd" d="M36.4 11.5V10C34.5 10 32.7 9.5 31.1 8.5C32.5 10 34.4 11.1 36.4 11.5ZM26.5 1.69998C26.5 1.39998 26.4 1.19999 26.4 0.899994V0H19.2V28.6C19.2 31.9 16.5 34.6 13.1 34.6C12.1 34.6 11.2 34.4 10.4 34C11.5 35.5 13.3 36.4 15.2 36.4C18.5 36.4 21.2 33.7 21.3 30.4V1.79999H26.5V1.69998ZM15 17.1V15.5C14.4 15.4 13.8 15.4 13.2 15.4C5.90001 15.4 0 21.3 0 28.6C0 33.2 2.29999 37.2 5.89999 39.6C3.59999 37.2 2.10001 33.9 2.10001 30.3C2.00001 23.1 7.8 17.2 15 17.1Z" fill="#00C9D0"/>
<defs>
<linearGradient id="paint0_linear_726_2267" x1="2.0371" y1="21.7407" x2="36.424" y2="21.7407" gradientUnits="userSpaceOnUse">
<stop stop-color="#23004A"/>
<stop offset="0.9565" stop-color="#020003"/>
<stop offset="1"/>
</linearGradient>
</defs>
</svg>
