<svg width="28" height="28" viewBox="0 0 28 28" fill="none" xmlns="http://www.w3.org/2000/svg">
<path d="M15.1336 22.2664V26.7996H0.600403V22.2664H15.1336ZM15.1336 17.2664V21.7996H0.600403V17.2664H15.1336ZM15.1336 12.2664V16.7996H0.600403V12.2664H15.1336ZM21.7996 0.600342V5.60034H26.7996V10.1335H21.7996V15.114L21.2029 15.1169H21.0604C20.9696 15.1174 20.8399 15.1182 20.6844 15.1189C20.373 15.1202 19.9569 15.1218 19.5408 15.1228C19.1252 15.1238 18.7081 15.1246 18.3934 15.1238C18.2365 15.1234 18.1029 15.123 18.0076 15.1218C17.9605 15.1212 17.9186 15.1199 17.8875 15.1189C17.8732 15.1184 17.8551 15.1181 17.8377 15.1169C17.8303 15.1164 17.8118 15.1148 17.7908 15.1121C17.7816 15.1108 17.7576 15.1073 17.7283 15.1003C17.714 15.0969 17.6851 15.0894 17.6502 15.0759C17.6311 15.0685 17.5336 15.0325 17.4422 14.9412L17.2664 14.7654V10.1335H12.2635L12.2664 9.53003V9.49292C12.2665 9.46875 12.2672 9.43339 12.2674 9.38843C12.2678 9.29782 12.2687 9.16787 12.2693 9.01245C12.2706 8.70156 12.2722 8.28684 12.2733 7.87183C12.2743 7.45643 12.274 7.04098 12.2733 6.72925C12.273 6.62314 12.2719 6.52981 12.2713 6.45288L11.4178 5.60034H17.2664V0.600342H21.7996Z" stroke="#FFFFDE" stroke-width="1.2"/>
</svg>
