<svg width="36" height="36" viewBox="0 0 36 36" fill="none" xmlns="http://www.w3.org/2000/svg">
<path fill-rule="evenodd" clip-rule="evenodd" d="M17.83 0H18.0033C19.5017 0 20.75 7.45058e-08 21.74 0.133333C22.7867 0.273333 23.7317 0.583333 24.49 1.34167C25.25 2.10167 25.56 3.04667 25.7 4.09167C25.8 4.825 25.825 5.69833 25.8317 6.70833C26.9117 6.74333 27.875 6.80833 28.7317 6.92167C30.685 7.185 32.2667 7.73833 33.515 8.985C34.7617 10.2333 35.315 11.815 35.5783 13.7683C35.8333 15.6683 35.8333 18.0933 35.8333 21.1567V21.3433C35.8333 24.4067 35.8333 26.8333 35.5783 28.7317C35.315 30.685 34.7617 32.2667 33.515 33.515C32.2667 34.7617 30.685 35.315 28.7317 35.5783C26.8317 35.8333 24.4067 35.8333 21.3433 35.8333H14.49C11.4267 35.8333 9 35.8333 7.10167 35.5783C5.14833 35.315 3.56667 34.7617 2.31833 33.515C1.07167 32.2667 0.518333 30.685 0.255 28.7317C0 26.8317 0 24.4067 0 21.3433V21.1567C0 18.0933 0 15.6667 0.255 13.7683C0.518333 11.815 1.07167 10.2333 2.31833 8.985C3.56667 7.73833 5.14833 7.185 7.10167 6.92167C8.06432 6.80372 9.03212 6.73253 10.0017 6.70833C10.0083 5.69833 10.035 4.825 10.1333 4.09167C10.2733 3.04667 10.5833 2.10167 11.3417 1.34167C12.1017 0.583333 13.0467 0.275 14.0917 0.133333C15.0833 7.45058e-08 16.3333 0 17.83 0ZM12.5033 6.67C13.1333 6.66667 13.7956 6.66556 14.49 6.66667H21.3433C22.0378 6.66667 22.7 6.66778 23.33 6.67C23.3233 5.72 23.3 5.00333 23.2233 4.425C23.1183 3.65667 22.94 3.32667 22.7233 3.11C22.5067 2.89333 22.1767 2.715 21.4067 2.61C20.6033 2.50333 19.5233 2.5 17.9167 2.5C16.31 2.5 15.23 2.50333 14.425 2.61167C13.6567 2.715 13.3267 2.89333 13.11 3.11167C12.8933 3.33 12.715 3.65667 12.61 4.425C12.5333 5.00167 12.51 5.71833 12.5033 6.67ZM7.43333 9.4C5.75667 9.625 4.79 10.0483 4.08333 10.7533C3.38 11.4583 2.95667 12.425 2.73167 14.1017C2.50167 15.8133 2.49833 18.0717 2.49833 21.25C2.49833 24.4283 2.50167 26.6867 2.73167 28.4C2.95667 30.075 3.38 31.0417 4.085 31.7467C4.79 32.4517 5.75667 32.875 7.43333 33.1C9.14667 33.33 11.4033 33.3333 14.5817 33.3333H21.2483C24.4267 33.3333 26.685 33.33 28.3983 33.1C30.0733 32.875 31.04 32.4517 31.745 31.7467C32.45 31.0417 32.8733 30.075 33.0983 28.3983C33.3283 26.6867 33.3317 24.4283 33.3317 21.25C33.3317 18.0717 33.3283 15.815 33.0983 14.1C32.8733 12.425 32.45 11.4583 31.745 10.7533C31.04 10.0483 30.0733 9.625 28.3967 9.4C26.685 9.17 24.4267 9.16667 21.2483 9.16667H14.5817C11.4033 9.16667 9.14833 9.17 7.43333 9.4ZM17.9167 13.3333C18.2482 13.3333 18.5661 13.465 18.8005 13.6995C19.035 13.9339 19.1667 14.2518 19.1667 14.5833V14.6C20.9817 15.0567 22.5 16.4883 22.5 18.4717C22.5 18.8032 22.3683 19.1211 22.1339 19.3555C21.8995 19.59 21.5815 19.7217 21.25 19.7217C20.9185 19.7217 20.6005 19.59 20.3661 19.3555C20.1317 19.1211 20 18.8032 20 18.4717C20 17.8317 19.29 16.945 17.9167 16.945C16.5433 16.945 15.8333 17.8317 15.8333 18.4717C15.8333 19.1117 16.5433 20 17.9167 20C20.225 20 22.5 21.6 22.5 24.0283C22.5 26.0117 20.9817 27.4417 19.1667 27.9V27.9167C19.1667 28.2482 19.035 28.5661 18.8005 28.8006C18.5661 29.035 18.2482 29.1667 17.9167 29.1667C17.5851 29.1667 17.2672 29.035 17.0328 28.8006C16.7984 28.5661 16.6667 28.2482 16.6667 27.9167V27.9C14.8517 27.4433 13.3333 26.0117 13.3333 24.0283C13.3333 23.6968 13.465 23.3789 13.6995 23.1444C13.9339 22.91 14.2518 22.7783 14.5833 22.7783C14.9149 22.7783 15.2328 22.91 15.4672 23.1444C15.7016 23.3789 15.8333 23.6968 15.8333 24.0283C15.8333 24.6683 16.5433 25.555 17.9167 25.555C19.29 25.555 20 24.6683 20 24.0283C20 23.3883 19.29 22.5 17.9167 22.5C15.6083 22.5 13.3333 20.9 13.3333 18.4717C13.3333 16.4883 14.8517 15.0567 16.6667 14.6V14.5833C16.6667 14.2518 16.7984 13.9339 17.0328 13.6995C17.2672 13.465 17.5851 13.3333 17.9167 13.3333Z" fill="#848124"/>
</svg>
