<svg width="40" height="28" viewBox="0 0 40 28" fill="none" xmlns="http://www.w3.org/2000/svg">
<path d="M15.2002 17H15.5059C16.8738 17.6214 18.3822 18 20 18C21.619 18 23.1367 17.6238 24.5029 17H24.7998C28.2225 17 31 19.7775 31 23.2002V25C31 26.104 30.104 27 29 27H11C9.89603 27 9 26.104 9 25V23.2002C9 19.7775 11.7775 17 15.2002 17ZM32 15H36C37.654 15 39 16.346 39 18V20C39 20.554 38.554 21 38 21H34.7139C34.1935 18.6376 32.8566 16.5983 31.0098 15.1699C31.3199 15.0613 31.6524 15 32 15ZM4 15H8C8.34729 15 8.67932 15.0615 8.98926 15.1699C7.14232 16.5985 5.80636 18.6383 5.28223 21H2C1.44603 21 1 20.554 1 20V18C1 16.346 2.34603 15 4 15ZM20 1C23.3165 1 26 3.68353 26 7C26 10.3165 23.3165 13 20 13C16.6835 13 14 10.3165 14 7C14 3.68353 16.6835 1 20 1ZM6 5C7.65397 5 9 6.34603 9 8C9 9.65397 7.65397 11 6 11C4.34603 11 3 9.65397 3 8C3 6.34603 4.34603 5 6 5ZM34 5C35.654 5 37 6.34603 37 8C37 9.65397 35.654 11 34 11C32.346 11 31 9.65397 31 8C31 6.34603 32.346 5 34 5Z" stroke="#FFFFDE" stroke-width="2"/>
</svg>
