<svg width="24" height="24" viewBox="0 0 24 24" fill="none" xmlns="http://www.w3.org/2000/svg">
<path d="M18.0838 13.8192C17.8249 13.5839 17.4847 13.4584 17.1351 13.4692C16.7854 13.48 16.4536 13.6263 16.2097 13.8771L12.9857 17.1926C12.2096 17.0444 10.6494 16.5581 9.04345 14.9562C7.43747 13.349 6.9511 11.7849 6.80694 11.0143L10.1199 7.78911C10.3711 7.54544 10.5176 7.21361 10.5284 6.86386C10.5392 6.51411 10.4135 6.17387 10.1779 5.91515L5.19961 0.441468C4.96389 0.181938 4.63627 0.0245142 4.28635 0.00262946C3.93642 -0.0192553 3.59174 0.0961234 3.32551 0.324261L0.401875 2.83141C0.168942 3.06517 0.0299121 3.37628 0.0111583 3.70574C-0.00905121 4.04254 -0.394379 12.0207 5.79242 18.2097C11.1897 23.6053 17.9505 24 19.8124 24C20.0846 24 20.2516 23.9919 20.2961 23.9892C20.6255 23.9708 20.9365 23.8311 21.1691 23.5972L23.6751 20.6724C23.9034 20.4064 24.0191 20.0618 23.9974 19.7119C23.9758 19.362 23.8186 19.0343 23.5593 18.7985L18.0838 13.8192Z" fill="white"/>
</svg>
